<svg width="100" height="100" viewBox="0 0 100 100" fill="none" xmlns="http://www.w3.org/2000/svg">
<path d="M48.2 42.8H51.8C52.1183 42.8 52.4235 42.9264 52.6485 43.1515C52.8736 43.3765 53 43.6817 53 44C53 44.3183 52.8736 44.6235 52.6485 44.8485C52.4235 45.0736 52.1183 45.2 51.8 45.2H48.2V48.8C48.2 49.1183 48.0736 49.4235 47.8485 49.6485C47.6235 49.8736 47.3183 50 47 50C46.6817 50 46.3765 49.8736 46.1515 49.6485C45.9264 49.4235 45.8 49.1183 45.8 48.8V45.2H42.2C41.8817 45.2 41.5765 45.0736 41.3515 44.8485C41.1264 44.6235 41 44.3183 41 44C41 43.6817 41.1264 43.3765 41.3515 43.1515C41.5765 42.9264 41.8817 42.8 42.2 42.8H45.8V39.2C45.8 38.8817 45.9264 38.5765 46.1515 38.3515C46.3765 38.1264 46.6817 38 47 38C47.3183 38 47.6235 38.1264 47.8485 38.3515C48.0736 38.5765 48.2 38.8817 48.2 39.2V42.8Z" fill="white"/>
</svg>
